<svg xmlns="http://www.w3.org/2000/svg" width="926.804" height="837.333" viewBox="0 0 926.804 837.333"><defs><style>.a,.b{fill:none;stroke:#00c;}.a{stroke-linecap:round;stroke-linejoin:round;stroke-width:0.75px;}.b{stroke-miterlimit:10;stroke-width:0.5px;}.c{fill:#00c;}.d{fill:#e7e7e9;font-size:14px;font-family:RobotoCondensed-Regular, Roboto;}</style></defs><g transform="translate(-10672.552 -7991.493)"><g transform="translate(10634.749 7917.82)"><line class="a" y1="52.346" x2="525.982" transform="translate(48.626 815.72)"/><line class="a" y1="54.473" x2="552.77" transform="translate(48.626 833.731)"/><line class="a" y1="17.199" x2="167.815" transform="translate(793.423 526.409)"/><line class="a" y1="2.439" x2="22.088" transform="translate(712.865 532.1)"/><line class="a" x1="9.273" y2="10.194" transform="translate(766.571 422.092)"/><line class="a" x1="181.337" y2="18.074" transform="translate(779.9 420.341)"/><line class="a" y1="16.51" x2="161.31" transform="translate(799.928 408.583)"/><path class="a" d="M961.238,402.642l-147.53,14.947-14.489,3.878"/><line class="a" y1="18.2" x2="180.629" transform="translate(780.609 426.844)"/><line class="a" y1="7.818" x2="76.759" transform="translate(884.479 438.102)"/><line class="a" x1="153.969" y2="15.385" transform="translate(807.269 390.821)"/><line class="a" x1="176.121" y2="18.012" transform="translate(785.117 514.839)"/><line class="a" y1="17.324" x2="171.485" transform="translate(789.752 509.461)"/><line class="a" y1="23.453" x2="231.824" transform="translate(729.414 471.436)"/><line class="a" y1="23.202" x2="230.793" transform="translate(730.445 481.192)"/><path class="a" d="M961.238,443.856,773.525,463.181l4.057,6.129"/><line class="a" x1="5.473" y1="8.568" transform="translate(784.279 518.216)"/><line class="a" x1="32.842" y2="3.314" transform="translate(749.505 517.278)"/><line class="a" y1="3.565" x2="34.838" transform="translate(700.05 470.56)"/><line class="a" y1="10.756" x2="104.836" transform="translate(779.642 445.92)"/><line class="a" x2="0.901" y2="6.692" transform="translate(708.422 498.954)"/><line class="a" y1="11.945" x2="6.826" transform="translate(332.674 353.922)"/><line class="a" y1="11.757" x2="6.89" transform="translate(350.125 363.617)"/><line class="a" x1="98.146" y1="22.133" transform="translate(38.251 273.253)"/><line class="a" x1="68.453" y1="16.011" transform="translate(48.626 295.322)"/><line class="a" x1="79.271" y1="17.073" transform="translate(48.626 239.349)"/><line class="a" y1="10.006" x2="15.841" transform="translate(390.501 399.202)"/><line class="a" x2="9.981" y2="11.257" transform="translate(376.334 397.201)"/><line class="a" y1="38.588" x2="19.962" transform="translate(327.78 444.293)"/><line class="a" x2="32.391" y2="32.52" transform="translate(339.564 599.394)"/><line class="a" y1="6.067" x2="63.495" transform="translate(451.354 369.557)"/><line class="a" x1="30.653" y1="39.338" transform="translate(612.214 407.081)"/><line class="a" y1="97" x2="75.857" transform="translate(598.112 554.677)"/><line class="a" x2="50.1" y2="18.387" transform="translate(419.221 662.871)"/><line class="a" y1="4.941" x2="51.645" transform="translate(654.78 497.265)"/><line class="a" x2="2.318" y2="21.388" transform="translate(652.977 504.332)"/><line class="a" x1="3.284" y1="6.004" transform="translate(669.269 464.994)"/><line class="a" x1="0.11" y2="8.288" transform="translate(659.5 901.212)"/><line class="a" x1="28.077" y1="13.634" transform="translate(521.739 74.18)"/><line class="a" x2="66.006" y2="32.396" transform="translate(471.832 74.18)"/><path class="a" d="M720.722,899.461,729.5,909.5"/><line class="a" x2="27.948" y2="32.834" transform="translate(656.326 825.601)"/><line class="a" x1="64.46" y1="83.491" transform="translate(516.394 716.281)"/><line class="a" x1="78.416" y1="87.213" transform="translate(682.084 822.287)"/><line class="a" x2="8.693" y2="10.695" transform="translate(703.077 885.327)"/><line class="a" y1="1.627" x2="1.868" transform="translate(698.247 885.014)"/><line class="a" x1="17.931" y1="20.108" transform="translate(698.569 889.392)"/><line class="a" x2="5.28" y2="6.254" transform="translate(684.274 858.435)"/><line class="a" x1="5.603" y1="6.317" transform="translate(677.061 864.689)"/><line class="a" x1="3.992" y2="3.252" transform="translate(685.819 867.941)"/><line class="a" x1="28.591" y1="32.271" transform="translate(648.469 832.418)"/><line class="a" x2="35.096" y2="39.024" transform="translate(616.786 840.611)"/><line class="a" y1="26.204" x2="236.074" transform="translate(48.626 577.692)"/><line class="a" x1="236.202" y2="23.641" transform="translate(48.626 512.087)"/><path class="a" d="M300.734,546.8l-7.985.812L48.626,572"/><line class="a" x1="235.559" y2="23.578" transform="translate(48.626 540.981)"/><line class="a" y1="2.439" x2="10.626" transform="translate(316.059 533.289)"/><line class="a" x2="0.965" y2="9.318" transform="translate(329.583 535.29)"/><line class="a" x1="13.651" y1="1.188" transform="translate(313.677 546.672)"/><path class="a" d="M561.149,189.379l7.921,56.911,4.959,46.78"/><line class="a" x1="10.69" y1="78.801" transform="translate(594.892 177.059)"/><line class="a" x1="9.016" y1="66.731" transform="translate(577.827 187.566)"/><line class="a" x1="4.959" y1="43.716" transform="translate(547.047 211.08)"/><line class="a" x1="5.989" y2="11.32" transform="translate(557.157 74.18)"/><line class="a" x2="8.307" y2="1.439" transform="translate(566.945 118.396)"/><path class="a" d="M539.64,109.953l-1.03,7.5,6.054.875-1.739,12.759"/><line class="a" y1="8.569" x2="4.83" transform="translate(552.327 363.429)"/><path class="a" d="M574.479,382.879l2.769-7.317,1.159-3.065"/><line class="a" y1="4.064" x2="2.253" transform="translate(550.074 371.997)"/><line class="a" x2="18.61" y2="6.192" transform="translate(551.233 378.876)"/><line class="a" transform="translate(214.38 880.387)"/><path class="a" d="M767.227,538.629a45.059,45.059,0,0,0,26.123,4.947"/><path class="a" d="M767.254,538.6a53.882,53.882,0,0,0-32.346-6.539"/><path class="a" d="M779.832,438.363a3.451,3.451,0,0,0-2.844,1.95,3.269,3.269,0,0,0,.359,3.362,3.486,3.486,0,0,0,3.193,1.345"/><path class="a" d="M799.2,421.4a1.845,1.845,0,0,0-1.37,2.12,1.9,1.9,0,0,0,2.065,1.5"/><path class="a" d="M807.238,406.2a48.746,48.746,0,0,0-31.46,15.863"/><path class="a" d="M766.488,432.225a14.924,14.924,0,0,0-1.363,16.212,15.826,15.826,0,0,0,14.447,8.231"/><path class="a" d="M776.368,472.235a2.007,2.007,0,0,0,1.324-1.157,1.922,1.922,0,0,0-.127-1.724"/><path class="a" d="M752.764,471.268a76.716,76.716,0,0,0,23.611,1"/><path class="a" d="M752.812,471.234a64.491,64.491,0,0,0-17.929-.736"/><path class="a" d="M784.269,518.182a1.852,1.852,0,0,0-1.965-.938"/><path class="a" d="M768.822,529.5a66.831,66.831,0,0,0,16.306,3.339"/><path class="a" d="M768.781,529.548a94.844,94.844,0,0,0-19.318-5.131"/><path class="a" d="M749.465,520.611a1.9,1.9,0,0,0,0,3.78"/><path class="a" d="M708.4,498.911a2.01,2.01,0,0,0-2.019-1.708"/><path class="a" d="M707.776,507.715a1.975,1.975,0,0,0,1.536-2.12"/><path class="a" d="M729.384,494.852a4.82,4.82,0,0,0-4.389,5.215l0,.038a4.893,4.893,0,0,0,5.4,4.264"/><path class="a" d="M401.537,366.208a64.8,64.8,0,0,0,20.759,8.478"/><path class="a" d="M401.577,366.243l-19.19-12.07L363,342.478"/><path class="a" d="M406.3,396.783q-8.4-7.6-17.463-14.464"/><path class="a" d="M388.839,382.331q-5.49-4.262-11.2-8.253"/><path class="a" d="M377.687,374.061l-8.887-5.628-8.951-5.5"/><path class="a" d="M376.338,397.144Q371.367,392.4,366,388.067"/><path class="a" d="M365.992,388.088q-7.408-5.285-15.2-10.022"/><path class="a" d="M332.417,394.136l-10.11-5.691-10.239-5.566-11.011-5.691-11.076-5.566-23.312-10.194-23.44-9.819"/><path class="a" d="M339.542,353.954a1.8,1.8,0,0,0,.288-1.507,1.858,1.858,0,0,0-.984-1.2"/><path class="a" d="M329.882,366.58a1.942,1.942,0,0,0,1.545.217,1.879,1.879,0,0,0,1.19-.98"/><path class="a" d="M359.8,362.918a2.263,2.263,0,0,0-2.835.688"/><path class="a" d="M350.052,375.3a1.811,1.811,0,0,0-.321,1.554,1.86,1.86,0,0,0,1.037,1.222"/><path class="a" d="M363.005,342.478l-10.5-5.878-10.561-5.691-10.754-5.5-10.819-5.317-10.883-5.128L296.673,309.4l-12.879-5.315-12.943-5.128-13.073-4.941-13.133-4.7"/><path class="a" d="M338.856,351.3l-12.428-6.316-12.493-6.126-12.621-5.816-12.75-5.691-12.819-5.382L262.8,316.774"/><path class="a" d="M329.9,366.681l-12.042-6.129L305.7,354.674l-12.236-5.691-12.3-5.5-12.428-5.315-12.5-5.071"/><path class="a" d="M244.641,289.319l-11.462-4-11.591-3.753L210,278.066l-11.716-3.319"/><path class="a" d="M243.229,351.609l-13.137-5.253-13.2-5-13.33-4.816-13.459-4.5-13.459-4.252"/><path class="a" d="M200.727,295.51l-7.4-2.251-7.341-2.252L167.7,285.941l-10.239-2.626-18.868-4.378-7.277-1.5-7.212-1.5"/><path class="a" d="M176.644,327.782l-14.811-4.441-14.875-4.253-14.94-3.939-14.94-3.816"/><path class="a" d="M198.281,274.746l-35.161-9.318L127.9,256.422"/><path class="a" d="M189.266,309.585l-7.341-2.188-17.387-4.878-10.174-2.689L136.4,295.385"/><path class="a" d="M48.626,259.424,67.752,263.8l28.14,6.192,28.206,5.942"/><path class="a" d="M256.237,333.1l-13.2-5.191-13.33-4.878-13.394-4.691-13.524-4.5-13.524-4.255"/><path class="a" d="M262.808,316.774l-12.3-4.691-12.3-4.44-12.43-4.253-12.493-4.066-12.557-3.814"/><path class="a" d="M406.283,399.214a1.5,1.5,0,0,0,.373-2.088,1.477,1.477,0,0,0-.331-.343"/><path class="a" d="M386.3,408.455a2.87,2.87,0,0,0,1.931,1.274,2.933,2.933,0,0,0,2.266-.545"/><path class="a" d="M296.479,509.868a32.944,32.944,0,0,0,9.332-4.654"/><path class="a" d="M305.792,505.252a88.4,88.4,0,0,0,13.629-11.273"/><path class="a" d="M347.744,444.235c9.424-18.021,2.7-40.055-15.315-50.176"/><path class="a" d="M319.452,493.957a36.853,36.853,0,0,0,8.337-11.087"/><path class="a" d="M422.309,374.681a80.074,80.074,0,0,0,29.017.908"/><path class="a" d="M339.525,599.312a70.177,70.177,0,0,0-54.876-21.7"/><path class="a" d="M371.912,631.908a135.515,135.515,0,0,0,47.3,30.919"/><path class="a" d="M600.875,381.622a93.484,93.484,0,0,0,11.34,25.413"/><path class="a" d="M514.784,369.527a27.448,27.448,0,0,0,12.425-4.508"/><path class="a" d="M598.1,651.639a49.969,49.969,0,0,0-3.409,47.937"/><path class="a" d="M712.833,534.479a60.594,60.594,0,0,0-38.928,20.175"/><path class="a" d="M642.831,446.42a62.352,62.352,0,0,0,20.046,15.939"/><path class="a" d="M662.883,462.379q3.126,1.426,6.374,2.589"/><path class="a" d="M516.376,716.271a100.188,100.188,0,0,0-47.085-35.025"/><path class="a" d="M654.795,502.154a1.985,1.985,0,0,0-1.808,2.149v.015"/><path class="a" d="M655.316,525.721a3.924,3.924,0,0,0,2.366,3.165,4.126,4.126,0,0,0,4.005-.41"/><path class="a" d="M707.8,507.728A133.146,133.146,0,0,0,661.7,528.5"/><path class="a" d="M672.558,471a1.764,1.764,0,0,0,1.326,1.037"/><path class="a" d="M673.859,472.027a83.449,83.449,0,0,0,26.023,2.023"/><path class="a" d="M393.8,603.9a112.706,112.706,0,0,0,41.262,26.221"/><path class="a" d="M368.86,567.342a109.5,109.5,0,0,0,24.9,36.58"/><path class="a" d="M360.132,521.1a114.088,114.088,0,0,0,8.737,46.216"/><path class="a" d="M366.508,487.389a100,100,0,0,0-6.391,33.669"/><path class="a" d="M378.875,462.993a192.267,192.267,0,0,0-12.353,24.42"/><path class="a" d="M400.048,439.277a118.991,118.991,0,0,0-21.169,23.731"/><path class="a" d="M423.773,423.818a120.783,120.783,0,0,0-23.7,15.471"/><path class="a" d="M461.087,410.333a156.372,156.372,0,0,0-37.358,13.448"/><path class="a" d="M502.386,406.294a146.431,146.431,0,0,0-41.311,4.015"/><path class="a" d="M544.81,413.807a160.593,160.593,0,0,0-42.383-7.47"/><path class="a" d="M583.86,435.277a126.637,126.637,0,0,0-39.111-21.446"/><path class="a" d="M605.9,459.025a119.567,119.567,0,0,0-21.981-23.8"/><path class="a" d="M620.106,488.495a91.185,91.185,0,0,0-14.231-29.422"/><path class="a" d="M624.257,534.942a123.135,123.135,0,0,0-4.116-46.465"/><path class="a" d="M610.905,576.756a99.112,99.112,0,0,0,13.327-41.82"/><path class="a" d="M574.66,615.792a109.343,109.343,0,0,0,36.249-39.03"/><path class="a" d="M537.256,633.216a148.732,148.732,0,0,0,37.422-17.409"/><path class="a" d="M494.225,640.163a146.094,146.094,0,0,0,43.05-6.923"/><path class="a" d="M435.067,630.112a154.675,154.675,0,0,0,59.168,10"/><path class="a" d="M631.726,758.058l7.855,11.07,8.115,10.945L656,790.892l8.5,10.632,8.694,10.444,8.887,10.32"/><path class="a" d="M574.564,815.7a9.9,9.9,0,0,0,8.024-6.151,9.447,9.447,0,0,0-1.793-9.773"/><path class="a" d="M557.478,682.948l8.371,14.446,8.115,13.447,8.307,13.258,8.564,13.2,8.694,13.008,8.951,12.946,9.209,12.758,9.336,12.571,9.6,12.508,9.723,12.32,9.982,12.2"/><path class="a" d="M538.417,696.893l9.659,12.946,13.717,17.954L575.7,745.616l14.167,17.7,14.36,17.511,14.553,17.386,14.747,17.2,14.94,17.011"/><path class="a" d="M594.7,699.645l5.666,10.006,5.86,9.944,6.054,9.819,6.311,9.7,6.44,9.568,6.7,9.381"/><path class="a" d="M703.04,885.311a1.9,1.9,0,0,0-1.381-.844,1.932,1.932,0,0,0-1.547.508"/><path class="a" d="M711.74,896.024a9.576,9.576,0,0,0,8.981,3.443"/><path class="a" d="M698.235,886.665a1.58,1.58,0,0,0-.622,1.433,1.6,1.6,0,0,0,.932,1.266"/><path class="a" d="M689.774,867.859a2.177,2.177,0,0,0-.051-3.078c-.05-.048-.1-.094-.156-.137"/><path class="a" d="M682.609,871a2.135,2.135,0,0,0,3.008.258c.049-.041.1-.084.14-.129"/><path class="a" d="M659.6,901.184a31.9,31.9,0,0,0-7.712-21.643"/><path class="a" d="M616.722,840.591a20.765,20.765,0,0,0-15.369-6.859"/><path class="a" d="M520.193,671.94l16.357,22.452,1.868,2.5"/><path class="a" d="M522.783,667.766a2.766,2.766,0,0,0-2.636,1.261,2.592,2.592,0,0,0,.06,2.854"/><path class="a" d="M522.757,667.792a89.67,89.67,0,0,0,20.441-4.2"/><path class="a" d="M547.69,665.373l9.209,16.51.58,1.064"/><path class="a" d="M547.655,665.3a3.131,3.131,0,0,0-1.822-1.886,3.262,3.262,0,0,0-2.659.114"/><path class="a" d="M306.064,546.443q-2.691.065-5.371.335"/><path class="a" d="M284.818,512.047a64.751,64.751,0,0,0,11.671-2.2"/><path class="a" d="M284.184,540.981l7.792-.875,6.632-1,6.568-1.126,10.883-2.252"/><path class="a" d="M329.571,535.279a2.27,2.27,0,0,0-.976-1.63,2.409,2.409,0,0,0-1.9-.362"/><path class="a" d="M327.3,547.787a3.05,3.05,0,0,0,2.389-.857,2.859,2.859,0,0,0,.846-2.334"/><path class="a" d="M313.662,546.667a70.946,70.946,0,0,0-7.618-.223"/><path class="a" d="M589.419,286.128l-.58-10.631L588,264.865,586.844,254.3"/><path class="a" d="M607.67,282.19a129.229,129.229,0,0,0-2.076-26.363"/><path class="a" d="M552.778,291.507l.387-7.38.129-7.317-.194-7.38-.386-7.317-.709-7.318"/><path class="a" d="M606.8,319.025l.58-7.38.387-7.317.193-7.38-.064-7.38-.194-7.38"/><path class="a" d="M588.9,315.835l.515-9.881.194-9.944-.194-9.882"/><path class="a" d="M572.792,320.7a101.016,101.016,0,0,0,1.163-27.65"/><path class="a" d="M545.665,327.6a141.709,141.709,0,0,0,7.086-36.105"/><path class="a" d="M543.055,175.245l1.094,12.008,1.288,11.945,1.61,11.882"/><path class="a" d="M549.789,87.816a5.519,5.519,0,0,0,7.285-2.317"/><path class="a" d="M577.442,123.65l-.966,7.067-.708,7.067-.451,7.129-.193,7.13.064,7.129.258,7.129.58,7.13.772,7.066,1.03,7.067"/><path class="a" d="M577.388,123.608a2.649,2.649,0,0,0-.1-2.423,2.807,2.807,0,0,0-2.051-1.384"/><path class="a" d="M562.179,121.336l-1.094,7.505-.9,7.5-.645,7.567-.386,7.63-.129,7.567.193,7.567.387,7.567.644,7.568.9,7.567"/><path class="a" d="M566.927,118.4a3.4,3.4,0,0,0-3.2.179,3.2,3.2,0,0,0-1.549,2.726"/><path class="a" d="M542.926,131.092l-.58,8.818-.258,8.818.064,8.88.323,8.818.58,8.818"/><path class="a" d="M539.673,109.941a3.322,3.322,0,0,0-1.856-3.441"/><path class="a" d="M602.3,74.18l-.191.688-2,8.38-1.674,8.444-1.481,8.443-1.223,8.506-.966,8.506-.709,8.568-.515,8.506-.194,8.63v8.569l.258,8.568.516,8.568.773,8.506"/><path class="a" d="M600.893,356.751a66,66,0,0,0-.1,24.877"/><path class="a" d="M578.407,372.5l3.349-12.633,2.061-8"/><path class="a" d="M527.213,365.027a17.386,17.386,0,0,0,6.012-8.811"/><path class="a" d="M557.156,363.429l2.511-5.316,4.25-9.632"/><path class="a" d="M600.945,356.737l2.318-12.508,1.932-12.57,1.61-12.633"/><path class="a" d="M583.816,351.859l1.61-8.943,1.352-9,1.159-9.007.966-9.069"/><path class="a" d="M563.9,348.473a129.929,129.929,0,0,0,8.943-27.784"/><path class="a" d="M533.266,356.237l3.54-6.944,3.22-7.129,2.962-7.255,2.705-7.318"/><path class="a" d="M550,376a1.983,1.983,0,0,0-.108,1.71,2.067,2.067,0,0,0,1.274,1.184"/><path class="a" d="M569.775,385a3.736,3.736,0,0,0,4.675-2.174"/><path class="b" d="M783.8,792.454l-12.686,22.58,6.5,3.314,43.66,22.452,12.879-22.452-6.5-3.314Z"/><path class="b" d="M104.044,662.933l.065.249,2.9-.249v.249l.386,4,.258,2.877,27.5-2.877.064-4v-.249l.322-13.071.065-2.878-32.783,2.878Z"/><path class="b" d="M260.977,637.044l-.129-1.251-.323-3.127-30.137,3.126L218.6,637.044,158,643.3l3.156,29.144,1.158,10.569,102.135-10.567-2.9-29.144Z"/><path class="b" d="M411.211,711.775l-.064-.5-.129-.875-.065-.813-7.984.813.129.875-4.25.5-5.8.626h0l-9.144,1-.129-1-.129-1.064-.709-6.5-73.6,6.5.064,1.064.129,1,4.379,41.4.837.625,4.121,3.19,32.2-3.19.258,7.005v.249l.193,4.253,43.789-4.253,2.383-.249,18.674-1.876L411.278,712.4Z"/><path class="b" d="M360.531,99.508l.064.125,1.288-.125.064.125.58,6.192,64.2-6.192,1.288-.125,9.144-.875-2.38-23.453H358.084l2.382,23.453Z"/><path class="b" d="M506.58,757.307l-1.61,7.192-1.8,8.38,10.111-8.38Z"/><path class="b" d="M873.635,910.783l3.155-5.566,11.076,5.566m44.369,0,3.027-5.566,1.739-3.19-4.636-2.377-.385-.188-.967-.5-1.673-.876-6.956-3.565-6.246-3.252-1.866,3.252-14.238-7.567-3.542-1.814-.958,1.814-4.187,7.567-2,3.565-1.095-.625-3.864-2.125-7.341-4.066-7.727-4.315L867,891.269l-2.126,4.066-4.379-2.127-1.352,2.127h-.064l.193.125,1.352.687.129.063-4.7,8.255,4.636,2.377,1.288-2.377,4.573-8.255.058-.057,2.774,1.308-.258.625-.322.876-.192.5.385.188,2.318,1.438.58-1.438.064-.188.258-.5.837.5.388.188-1.289,2.377-1.674,3.19-3.026,5.566m-2.34-15.337.481.227-.461-.214Z"/><path class="b" d="M99.279,614.09,72.3,616.779l.129.939.58,5.441,63.3-5.441v-.939l.064-2.689v-.813l.067-2.94-29.107,2.939Z"/><path class="b" d="M130.639,124.462v.5l2.318,20.825v.25l.129,1.063.386,3.753.322,2.626.128,1.376.322,2.626,25.3-2.624-.129-1.376-.322-2.626L195.16,147.1l.387,3.753v.186l2.189-.187,37.35-3.753,10.69-1.063,2.447-.25-2.254-20.825-.064-.5-.193-1.689-.193-1.814L244.3,109.453l-.257-2.312-.451-3.877-37.606,3.877-22.088,2.314,1.224,11.507.193,1.814-16.421,1.689-4.507.5v-.5l-.193-1.376-.837-8.067-.387-3.441-33.357,3.438.837,8.067Z"/><path class="b" d="M172.174,201.074l21.315-2.188.773,7.255.709,6.191,59.888-6.191-.837-7.255-.579-5.88-1.288-11.757-114.046,11.76.644,5.88.258,2.188,1.481,13.447.322,3.44,32.777-3.44Z"/><path class="b" d="M472.514,259.549l-.193-1.751v-.312l-.644-5.691L419.2,257.486l-3.027.312-17.194,1.751,2.963,26.392.58,5.379.193,1.751,17.065-1.751,55.508-5.379Z"/><path class="b" d="M475.284,285.941l19.641-2-2.7-26.454-.193-2.064-19.7,2.064,2.769,26.454Z"/><path class="b" d="M263.551,254.107l-5.6,10.757,9.788,4.816,2.511-4.816,5.667-10.757-9.853-4.816Z"/><path class="b" d="M185.44,703.707l-.58-7.38v-.563l-5.795.563.58,7.38-10.239.812.129,1.814.064,1.188,15.97-1.188-.129-1.814Z"/><path class="b" d="M730.613,756.87l3.22,1.688,1.8.939,7.663,4,2.125-4,.515-.939,1.482.939.515-.939.966-1.688-10.562-5.379,1.353-2.377,4.636-8.38L729.9,733.479l-6.568,7.255-7.535,8.38,4.637,2.377Z"/><path class="b" d="M740.594,768.564l2.7-5.066-1.61-.813L715.8,749.114l-12.042,13.571,1.546.813,9.273,5.066L735.12,778.7Z"/><path class="b" d="M698.543,768.564l-7.535,8.506,8.049,8.755,7.857-8.755,7.663-8.506-10.819-5.879Z"/><path class="b" d="M743.684,694.579l-23.955-19.95-41.857-34.773-31.1,34.773,23.569,19.95,41.921,35.4Z"/><path class="b" d="M939.511,592.639l7.277-.813-1.03-10.193-.065-.626-7.212.626.966,10.193Z"/><path class="b" d="M92,474.5v.375l.129,1,10.947-1,4.507-.375L106.3,461.616l-.837-8.88-.129-1.439-15.455,1.439.837,8.88Z"/><path class="b" d="M690.3,87.125l-15.584,1.56.515,5,.387,3.752.322,2.815,27.69-2.815-.451-3.752-.129-1.126-12.042,1.126-.515-5Z"/><path class="b" d="M859.531,643.922l-1.8-14.447-.386-3-.129-1-8.951,1-.065-1-.258-3.565-.257-3.127L816.26,621.91l.129,3.565.064,1,.194,3,27.17,14.447,16.615,8.818Z"/><path class="b" d="M860.433,652.74l5.409,2.815.386.25,1.8-.25-.129-2.815-.129-2-.837-6.817-.064-.625-7.341.625.707,6.817Z"/><path class="b" d="M801.9,854.37l.773-1.251-.9-.688,2.061-4.191-38.445-19.574,1.739-3.315-13.139-6.567-3.542,6.567-1.8,3.315L738.084,848.24l-2.255,4.191-.322.688-.709,1.251.645.75L737.117,857l.129.125.451.563.451.438L743.364,864l-.387.688-.451.875,1.8,2L746,869.5l.9,1,.58.625.129.188,5.667,6.316,2.511,2.815,1.61-2.815L761,871.315l.065-.188.322.188.708.374-.065.125-.643,1.126-.193.376-.773,1.313,1.546.813.708.375.193-.375.451-.813.645-1.313.193-.376.772.376L764.157,875l-.516,1,3.027,1.625.837-1.625.515-1,.9.438L763,887.012l3.928,4.5,2.447-4.5,6.375-11.57.193-.438.966-1.689.193-.376.58-1.126h-.121l-.257-.125-1.03-.374.129-.188.386-.625-1.674-1-.966-1.939,1.03-2,.451-.875L777.3,864l1.223.688.258.187h1.094l1.288.314.193.062v-.062l.129-.314h.065l.064-.187.322-.688,3.027-5.878.258-.438.9.438,4.83,2.564,10.818,5.566,2.9-5.566-4.895-2.564.258-.438.258-.563,1.03.563.9.438,1.417.75.515-.75.387-.438.386-.563.129-.125-3.606-1.876Z"/><path class="b" d="M799.837,118.146l-10.3.937-.394-4.253-.451-4.816-53.379,4.816-.451-4.816-.194-1.813-.064-.626-6.89.626.129,1.813.451,4.816.451,4.253v.068l-5.538.5v-.375l-.129-1.126-.064-.563-6.633.563-12.556,1.126.064.375v.125l.387,4.253.58,6.129.064.312,1.737,18.881.064.438.129,1.064v.187l2.126-.187,11.913-1.064,5.154-.438.065.438.064,1.064.645,6.629-6.633.626.258,3,.645,6.316.193,2,21.7-2,70.384-6.316-.322-3v-.626l-.649-6.631,11.914-1.064.064,1.064,1.417,14.884.193,1.689,18.868-1.689-1.416-14.884-.065-1.064-.064-.438-1.8-18.887,3.414-.312-.58-6.129-.065-.563-6.44.563-.39-4.25v-.12l-.065-.5v-.063l-.064-.937-1.1-11.258-.322-3.376L798.8,106.893Z"/><path class="b" d="M888.961,281.125l.322,2.877,28.978-2.877-3.735-35.585-.579-5.253-.257-2.877-28.979,2.88.515,5.253Z"/><path class="b" d="M772.083,85.75l24.47-2.5-.495-4.432.044.3,4.572-.438-.322-3.5H770.989l.836,8.068Z"/><path class="b" d="M723.85,87.063l-.421-3.881,8.6-.872-.385-4-.066-.876L722.9,78.3l-.338-3.12H689.141l1.225,11.883.321,3.44.322,3.19L724.173,90.5Zm-.509-4.747-.008-.066.006.059Z"/><path class="b" d="M732.028,82.309l6.762-.75-.516-4.128-.064-.625-6.634.625.387,4.128Z"/><path class="b" d="M220.085,448.608l.065.438,3.734-.438.322,2.439.065.438,3.605-.438-.257-2.439-.9-7.505v-.438l-.322-2.315v-.375l-3.734.375.258,2.315-3.735.438Z"/><path class="b" d="M261.233,446.981l1.868-.25-1.481-11.82-.064-.25-1.868.25,1.481,11.82Z"/><path class="b" d="M453.518,790.2l-20.025,2.127-2.769,18.45-.129.688,6.826-.688.387.688,1.288,2.564,3.927,7.629,76.825-7.629.515-2.564.129-.688,3.413-18.45.387-2.126.193-.938,1.159-6.378-63.3,6.378Z"/><path class="b" d="M589.393,902.4l5.088-4.252-9.659-10.57-.194-.187-.193-.25-.193-.187-.194-.188-.193-.187-.129-.187-.129-.125-.129-.125-.129-.125-.064-.062-.064-.125-.065-.063-.064-.062-.194-.187-.193-.25-.193-.187-.258-.25-.193-.25-.258-.312-.258-.25-.258-.312-.257-.25-.258-.312-2.9-3.127-.387-.438-.386-.438-.451-.5-.516-.5-.444-.572-.515-.563-.129-.125-.323-.376-.386-.375-.837-.626-.9-.5-1.03-.25-.645-.125-.386-.062-1.03.062-.837.125-3.027.25-4.572.5-6.053.626-3.67.375.064.376.065.125.064.563v.563l-.129.5-.258.5-.257.438-.387.438.322,3.127.065.313.064.25.065.313.128.25.129.313.194.25.128.25.194.187.193.25.258.187v.062l.064.063.129.062.065.063.193.125.258.187.257.125.258.125.322.062.258.125h.065l.257.062h.323l.257.063h.387l.258-.063h.322l.258-.062h.064l.9-.125,1.03-.062,1.288-.125,1.417-.125,1.674-.187,1.224-.125.129-.063h.128l.258-.062.322-.063.258-.062h.645l.257.062h.322l.258.063.322.125.258.062.258.125.258.125.257.125.258.187.258.187.193.188.194.187.193.25.193.187,9.4,10.57,3.8,4.252.323.188h.064l.387.25.386.187.451.125.387.125h.065l.451.124.386.063H586.5l.451-.063.387-.124h.064l.451-.125.387-.125h.064l.387-.187.387-.25Z"/><path class="b" d="M604.59,910.718l-.451-.625-.452-.688-.386-.563-.387-.563-.386-.563-.129-.125-.189-.311-.322-.438-.837.438-.9.312-.9.125h-.966l-.707.563-.709.563-.708.563-.644.688-.58.625"/><path class="b" d="M396.3,910.68l-2.611-13.528-.128-.687-6.891.687,2.48,13.528"/><path class="b" d="M385.13,183.563,370.448,185l.644,6.316.129,1.5,14.682-1.5.257,2.126,21.895-2.126,61.69-6.129v-.062l.193-.063-.193-1.5-2.7-25.579-.9-8.318-83.778,8.318Z"/><path class="b" d="M111.384,513.837l7.921-.75-2.125-22.514-.322-2.877-.258-2.564v-.376l-.064-.688-7.921.688-4.637.376L72.811,487.7l-1.546,2.877-12.1,22.513-.451.75-.194.439-2.769,5.19,51.581-5.19Z"/><path class="b" d="M511.248,910.68l2.033-18.353-.451-3.816-.259-1.939,14.231-1.5.129-1.69.48-5.1-.029.41v.063l.322-.062h.386l9.467-.938,1.738-.188,1.674-.188v.688l.064.063v.249l.064.25.064.063.065.313.063.125.065.188.128.25v.063l.194.313v.063l.129.188.063.063.193.25v.063l.194.188.063.064.193.187.064.063.129.125.13.125.192.064.129.124.13.125.192.063.129.063.129.125.13.064.257.061.129.063.194.063.129.063.192.063h.13l.192.063.193.064h.579l.129.061.386-.061h.515l.194-.064.192-.062h.129l.193-.063.129-.062.193-.062.194-.063.129-.061.192-.064.129-.125.193-.062.129-.063.129-.125.129-.124.193-.064.065-.125.192-.125.064-.063.194-.187.063-.064.193-.188v-.069l.194-.25.063-.062.129-.188.064-.062.258-.313.065-.062.129-.25.128-.188.064-.125.13-.313.063-.062.065-.25.063-.249v-.751l-.063-.375-.129-.5,18.158-1.876,1.03-.061.386.061.644.125,1.03.251.9.5.837.626.709.749,19.447,21.265-.323.313-.193.249-.258.313-.193.375-.192.314-.129.374-.194.313-.064.375-.129.376v.438l-.063.312v.688l.063.126v.374l.129.375v.125l.064.251.129.312.194.375v.063l.128.251.258.374.194.313.192.188.064.063.258.313.258.25.322.25.322.25h.065l.257.188.386.188.193.063.129.063.386.125.387.125.385.063.386.063H599.3l.385-.062.451-.063.322-.125.386-.125.193-.063.194-.062.321-.188.322-.188.129.188.644.939.837,1.187.773,1.188.287.407"/><path class="b" d="M636.327,910.68l-.055-.337-.258-1.188-.385-1.187-.323-.939-.064-.188-.063-.25-.129-.25-.13-.25-.129-.313v-.062l-.129-.188-.129-.313-.193-.374-.129-.251-.063-.063-.194-.375-.193-.312-.192-.251-.066-.125-.258-.375-.256-.374-.065-.126-.193-.25-.321-.438-.259-.312-.064-.064-.322-.374-.322-.376-.322-.375-.321-.313-.323-.374-.257-.314-.322-.375-.259-.313-.258-.249-.258-.313-18.739-21.265-.644-.749-.58-.626-.386-.5-.258-.251-.128-.125v-.061l-18.481-21.016-.322-.312-2.769-3.191-.837-.563-.322-.188-1.159-.688-1.224-.688-1.288-.5-1.288-.5-1.352-.374-1.352-.314-1.351-.188-1.353-.125h-1.61l-1.352.125-2,.188-3.092.314-3.671.374-4.83.5-5.409.5-6.44.688L540,849.3l-2.318.188v.563l-.193,3.191-7.019.312.394-3.25v-.125l-.837.125-94.468,9.381-5.667.563-5.409.5-2.511,22.64-.193,1.69-.129,1.5-.258,1.939L421,892.335l-.064.624-.008.028.265-2.779,2.576-23.266.193-1.625.515-4.566-45.785,4.566-15.97,1.625.193,1.689,2.383,21.577.386,3.376v.25l.258,2.628.129.687.193,2,20.413-2h.064l6.827-.687,27.238-2.628.064-.25v.063l-.064.188v.063l-.064.624v.25l-.644,5v.376l-.064.374-.064.375-.064.376v.374l-.064.375-.064.313v.376l-.064.374-.064.313v.313l-.064.313v.313l-.064.313v.313l.644-.062,1.481-.187.193.187.129.063.193.188.064.063.193.189.129.062.193.125.129.063.258.125.064.064.258.125h.129l.258.124.064.063.258.063h.129l.258.064.129.062h.258l.129.063h1.352l.193-.063h.193l.129-.062.258-.064h.129l.258-.062.129-.063.258-.124h.064l.258-.125.129-.064.193-.125.129-.063.193-.125.129-.062.193-.189.129-.063.193-.188.064-.062.193-.187.064-.063.258-.313.258-.313.193-.313.193-.313.193-.313.129-.374.129-.376.064-.313.064-.375v-.374l.064-.376-.064-.375v-.374l-.064-.376-.322-5,2.189-.25,5.989-.624.837-.063,1.61-.188.129.188v.063l.193.187.129.188.193.189.193.187.193.188.193.125.258.188.193.063.064.063.193.064.258.125.258.062.258.063h1.341l.258-.062.193-.062.258-.125.258-.064v-.074l.258-.062.193-.188.193-.125h.064l.193-.188.193-.187.129-.189.193-.188.129-.187.064-.063.064-.188.129-.187.129-.251.064-.25,6.182-.624,36.963-3.816-.322,3.816L489.6,910.68"/><path class="b" d="M263.809,665.806l.644,6.5v.125l1.1-.125-.772-6.5,8.564-.875L269.8,632.66l-.065-.938-9.209.938,3.22,32.271Z"/><path class="b" d="M958.7,274.618l-3.671.376-.193-1.188-.58-5.253-2.769-24.641-.065-.124-.836-7.881-.451-3.815-.516-4.627-.064-.188-.065-.75-.064-.312V225.9l-1.481.125-1.675.187-.9-.875-1.417-1.313-.322-3.315-.064-.5-.065-.314.709-.75.065-.125.193-.125.837-.937,3.349-.312,1.094-.125-1.481-13.884v-.376l-3.478-32.52-.193-2.252,11.462-1.189,5.345-.5,2.833-.312v-3.755l-.9.063-.062-.563-.064-.688-6.569.688-5.8.563-21.185,2.252-.258.312-1.288,1.438-.451.5-.966,1.189-1.932,2.252,3.8,32.52.065.376v.125l1.159-.125,3.413-.376.064.376,1.675,13.884v.438l.129.937-1.417.125-.772.125-.645.75-.322.314-.451.5.387,3.315.193,1.313.064.875.065.312,1.352.75.322.188,1.739-.188v.188l.516,4.627.386,3.815.837,7.881-1.61.124,2.576,24.641.58,5.253.129,1.188.193,1.814v.25l2.382-.25.065.25.193,1.813,18.223-1.813,2.447-.25,1.739-.125"/><path class="b" d="M881.168,237.41l.258,2.877.065.312,3.22-.312,28.978-2.877,3.348-.376L913.3,201.761l-.322-3.5-35.546,3.5,3.671,35.273Z"/><path class="b" d="M964.237,75.18h-8.245l-.773,1.5-.322.625-1.288-.625-.322.625-4.121,7.818-.129.25,1.288.625-1.417,2.627-8.435,16.011-1.675,3.251-.129.188-.577,1.125h-.836l-.258.062-.193.063-.194.062-.193.062-.193.063-.194.125-.129.125-.193.125-.129.124-.193.125-.129.188-.129.187-.129.125-.064.187-.129.187-.065.188-.064.187v.125l-.064.125v.375l-.065.188.065.25v.375l.064.188.064.249.065.188.129.187.064.125.129.187.129.187.129.125-.58,1.064,4.765,2.377-.772,1.438,2.19,1.126,1.159.563.838.438,2.125,1,.516-1,.258-.438,6.44,3.189.643,2.189,6.568,3.252,1.417.688,2.317-.688"/><path class="b" d="M352.8,799.208v-.124l-.451.061-.515.063-3.8.375-.064-.375-.064-2.25v-.189l-.064-.625-6.44.625-1.867.189.129,2.25v.375l.064.813-6.7.625-8.629.876-.193-2.689v-.124l-.064-.688-7.212.688-.966.124.193,2.689.064.752-8.178.812-.193-2.752V800.4l-.064-.437-4.314.437-3.606.313.258,2.752.065.813-8.63.813-.064-.813-.129-1.939V801.9l-.064-.374-3.671.374-4.508.438.322,1.939.064.813.129.814-8.629.812-.129-.812-.193-2.065v-.379l-.064-.374-3.928.374-4.057.375.258,2.065.064.812.064.813-3.735.376m.032.049-.032-1.3.129-8,.064-.5v-3l.064-.625V791.7l.064-.689v-2.752l.064-.687v-3l.064-.562v-.5L264.063,764l.129-5.192.064-5.378.322-18.2.064-3-5.731-.061-.064.061-3.027,3-19.576-.374-.58-.875-1.674-2.378-6.375-.125v.125l-.064,2.378-.064.875v.374l-.515,18.2-.193,5.378v1.064l-.064,1.062v1.438l7.148-1.438,1.03-1.062.58-.5,10.883.5v-.5l.064-.563h4.121l.837,5.192-.064,19.511-.58.5-.45.562-.452.5-.386.625-.386.563-.322.688-.322.626-.193.687-.193.688-.129.688-.129.688v1.377l.064.749.064.689.193.688.193.687.258.625.258.689.386.624.386.563.386.563.515.563.515.5-.064,8.005.773.063-.193,5-7.019.063-.129-1.312-13.845-.251-1.352-2.313.194-.064.192-.125.193-.125.193-.124.129-.189.193-.125.129-.188.129-.187.129-.126.064-.188.129-.249.064-.189.065-.188v-.187l.063-.251v-.813l-.063-.249-.065-.189-.064-.188-.064-.187-.129-.189-.129-.188-.129-.187-.129-.189-.129-.125-.129-.188-.193-.125-.193-.125-.193-.125-.193-.062-.193-.125-.193-.062-.193-.064-.258-.062h-2.9v1.438l-.064.188V805.4l-.064.251v2.063l-.064.125v.064l-.064,2.313v1.626l-.837,27.769-.129,3.815,38.444-3.815,11.012-1.126.129,1.375v.938l9.788-.938-.193-1.375-.064-.939,32.52-3.252.129,1.438.064.938,9.981-.938-.193-1.438-.193-.937,10.5-1.064,1.417-.125.064,1.438.064.688v.313l3.284-.313,6.826-.688-.129-1.438-.064-1,5.989-.625.386-.063,60.274-5.94-.58-15.136-.193-4.69v-.438l-.064-1.251v-1.563l-.386-9.506v-.5H411.79v.063l-10.818.314-2.575.124.321,9.506-6.311.752-.129-.752-.064-.438-4.186.438-7.534.752-7.148.812.129,1.251-5.8.438v-.438l-.258-5.19-.129-3.066v-.624l-14.618.624.129,3.066"/><path class="b" d="M152.984,763"/><path class="b" d="M152.92,768.564l8.629.125,27.11.375v-.5l.065-1.814.129-5.5.064-.5v-1.939l.194-4.878v-.063l.644-19.95-54.736-.813v.813l-.258,19.95v.063l-1.545-.063v.063l-.129,4.878v1.376l-.065,2.751L134.7,763l8.5.125-.129,5.315,9.852.125v-.125"/><path class="b" d="M153.049,760.746"/><path class="b" d="M710.585,603.083l-13.137-11.011-.129-.062-.58-.5-.451.5.065.062-9.719,11.011-32.519,36.773-20.741,23.452,1.288,1.064,12.107,10.257,9.144-10.257.966-1.064,20.992-23.453Z"/><path class="b" d="M75.323,645.363l.193,1.626.322,2.878.129,1.126.193,1.689,2.254,21.381.193,1.689,16.486-1.689-2.254-21.388-.193-1.689,10.174-1.123,32.777-2.878.064-1.626.515-.062,13.2-1.189,8.629-.812-1.481-15.073-1.03-10.506-.515-5.442-.193-1.938-.129-.939-.064-.876-8.693.876-8.951.939H136.5l-.064,1.938-.129,5.442L73,623.157Z"/><path class="b" d="M133.216,753.868l.064-2.376v-.063l-13.137.063-.064,2.376-.065,4.941-.064,4.128-.064,4.316L88.01,770.317l-20.929,2.064,4.894,9.694-20.349,9.566V804.65l13.909-1.438,13.524-1.433,5.022,51.09.193,2.188.258,2.252,22.8-2.252,21.955-2.189-6.5-51.1-.58-4.565,10.11-1.063.258-14.072.258-9.694V770.31l.064-3.064.129-4.316.065-4.128Z"/><path class="b" d="M941.829,278.874l-23.568,2.251L889.283,284l-20.994,2.064-9.852.939-22.023,2.126.064.563.064.625-.386.062-2.255.188,2.834,27.7.129,1.126.064.375.129,1.376.387,3.565.322,3.189,1.03,10.132.064.5.129,1.189v.375l3.735-.375.129,1.25.064.063.644-.063,12.686-1.25,12.492-1.189,4.83-.5,90.669-8.881"/><path class="b" d="M964.248,708.641l-2.769-1.375,1.1-.189,1.03-.374.643-.314M964.5,692.5l-1.29-.611-1.03-.313h-.07l-1.03-.125h-1.1l-1.03.125h-.064l-1.03.313H957.8l-.9.375,3.8-7.38-26.659-13.57-3.414-1.689-.773,1.689-11.912-6L916.006,664l-1.8-1.376-1.739-1.5-1.61-1.626-1.544-1.688L907.9,656l-.129-.187-.129-.25-.965-1.438-1.159-2-.709-1.377-.192-.5-.129-.125-.838-2.125-.708-2.126-.58-2.19-.451-2.188-.258-2.253-.129-2.251.064-2.251-1.03-9.256-.129-1.187L900.1,621.1l-.258-2.314-1.288-12.132,30.008-3-.58-5.816-.708-6.755-.773-7.38-.451-4.315-.063-.5-.388-4.315-.322-2.876-29.169,2.869-44.3,4.315-.515-4.315-43.273,4.315-4.9.5.451,4.315-73.86,7.38.643,6.755.451,5.816.258,3,.966,12.132.194,2.314.063.813.065.688.063.689,6.44-.689,6.311-.688,7.212-.813.064.813.064.688.258,1.438.387,1.5.45,1.375.644,1.376.645,1.188.128.125.837,1.251.966,1.188,1.03,1.126,1.16,1,1.222.938,1.288.814,1.352.687-1.481,2.126,24.6,12.445,1.867.939,3.929,2,.192.061v-.061l1.03-2,.451-.939,1.867.939,1.1.624,5.474,2.815.451.25.386.187,3.477,1.815,3.285,1.688,3.09,1.626,2.9,1.5,2.7,1.376,2.447,1.313,11.528,6,26.079,13.57,14.3,7.38v.063l1.095.563,1.289.625,1.48.814,1.61.812,1.8.938,1.932,1,2,1.063,2.061,1.063,2.061,1.063,2,1.063,1.932,1,1.867.938,1.74.938,1.48.751,1.352.752,1.159.563.9.438.644.374.323.189,4.764,2.438,1.675.876,2,1.063-.9,1.626,8.243,4.253,17.258,8.944,3.155,1.625.838-1.625,3.349,1.625,11.783,5.755,3.027-5.755.837-1.625,4.7-8.944m-96.15-61.967-5.409-2.815-1.03-.624-1.868-.939-23.376-12.445L830.1,636.6l-1.287-.687-1.547-.814-1.739-.938-1.932-1-2.061-1.126-2.253-1.188L816.9,629.6l-.256-.125-.065-1.188-.063-1.376-.13-1.375-.064-1.5-.064-1.438v-.688l8.178-.813,23.248-2.314.192,2.314.193,3.191.129,1.187v.064l.065.937,8.821-.937.13-.064,11.978-1.187.128,1.187.966,9.256.258,2.251.259,2.251.192,2.253.259,2.188.256,2.19.194,2.126.192,2.125.064.125-4.186.5.064,1.377.129,2,.065,1.438-1.8.25Z"/><path class="b" d="M848.066,907.531l2.318-.064m-80.3-12.445,13.923,15.658m-2.658-45.429-1.481-.375h-1.1l-.258-.188L777.294,864l-1.675.688-.064.188-.193.375-1.224,2.314v.063l.9,1.751.065.125,1.673,1-.514.813,1.287.5-1.03,2.189-9.465,17.325-.13.187,3.155,3.5m19.383-35.149-4.25-2.189-1.159,2.189-2.7,5.378M819.8,875.629l.193-.25-11.976-6-3.414-1.751-2.833-1.376-7.985-4.128-4.315-2.251m70.9,47.593.322-.625-2-1-2.64-1.377.193-.25,4.508-8.005-1.674-.875,1.417-2.127-19.9-10.319-4.313-2.252h-.065l-1.288,2.252-4.507-2.252-10.427-5.252m30.393,32.082"/><path class="b" d="M747.419,759.5l-1.482-.938-.515.938-2.125,4-.515,1-2.578,4.756-5.088,9.443-1.094,2.126,22.538,11.507,6.053-11.507,1.159-2.126,4.959-9.443,2.447-4.754.965-1.814.452-.937,1.738-3.252.194-.376,2.318-4.377,1.094-2.19,18.224,9.319,2.446,1.313,29.622,15.134,12.879,6.568,2.189,1.126.515-1.126,2.126,1.126L873.372,799.4"/><path class="b" d="M752.184,758.495l-3.284-1.626-.9,1.626-.578,1"/><path class="b" d="M729.9,733.479l5.215,2.626,11.978,6.067,10.69,5.379-.708,1.376-1.353,2.626-1.094,2.19-2.318,4.377-.129.376"/><path class="b" d="M790.755,727.287l-.58-.312-31.489-16.761,3.734-6.692-10.883-5.878-5.731-3.065-1.353-.812-.772.812-2.7,3.065L714.9,726.975l-2.64,3,4.121,3.5,3.349,2.815.323.25-11.269,12.57L699.7,759.179l-6.5-5.441-1.61-1.376-1.546,1.376-5.924,5.441-4.9,4.447-14.683,13.446L663,778.51l-1.481,1.313,5.215,6,3.607,4,13.78,15.635,1.288,1.5.193.187.129-.187,1.159-1.5,1.352,1.5,2.962,3.378,3.414,3.815,17.323,19.575,7.792.626.516-.626,15.519-19.574-5.28-3.815-4.637-3.378-2.124-1.5-21.638-15.633-3.027-4-5.473-6-1.224-1.313-1.352-1.438,11.912-13.449,3.928-4.44,8.951-10.069,11.334-12.57.258-.25,2.511-2.815"/><path class="b" d="M964.236,829.228l-48.423-24.891,2.511-4.941,2.705-5.253-32.652-16.824-2.06-1.063-.966,1.063L855.99,762.187l.451-1.313-18.223-9.319L819.8,742.174l-11.784-6.067-17.259-8.82"/><path class="b" d="M873.377,799.4l-2.64,4.941-15,27.83-1.8,3.252-1.674,3.065-17.129,31.77-4.379,7.5,5.538,2.877,24.2,12.571,4.379,2.126,1.1-2.126,6.954-12.571,1.546-2.877,4.121-7.5,17.38-31.767,1.674-3.065,5.86,3.065L932.1,853.309l17.323,9.005,14.811,7.755"/><path class="b" d="M964.236,889.08l-5.989,11.07-2.959,5.377-.193.25-2.677,4.9"/><path class="b" d="M800.674,78.682v.438l4.186-.438,8.951-1-.258-2.5h-13.2l.194,2.5Z"/><path class="b" d="M132.185,352.671l-36.191,3.5,2.64,26.7.323,3.753,36.254-3.753-2.7-26.7Z"/><path class="b" d="M501.3,166.863l-6.44.688.128.939.065.625,6.375-.625-.064-.939Z"/><path class="b" d="M662.223,687.7l-12.814-10.882-14.747-12.445-1.288-1.064-11.851-9.756-8.629,9.756-.9,1.064-11.011,12.445,12.94,10.882,50.744,42.277,7.92,6.568,19,15.822,1.61,1.376,6.5,5.441,4.895-5.441,1.223-1.376,14.232-15.822-7.793-6.568Z"/><path class="b" d="M856.643,910.68l-6.128-3.15-.129-.064-2.318.064-1.654,3.068"/><path class="b" d="M856.643,910.68"/><path class="b" d="M858.5,910.781"/><path class="b" d="M867.452,910.781l5.215-9.694.774-1.438-.388-.188-.837-.5-.258.5-.064.188-.58,1.438-2.7-1.626.772-2-2.769-1.313-.772,1.313-1.1,2-.9,1.626-5.344,9.694"/><path class="b" d="M887.633,910.68l-6.337-3.214-4.508-2.251-1.287,2.251-1.8,3.214"/><path class="b" d="M953.938,217.146l-8.636.813-.129.125L943.5,219.9l.194,1.251.129,1.5.128,1.376.194.187,2.125,2,17.966-1.814"/><path class="b" d="M964.239,166.488l-19.641,2,3.8,35.9.129,1.5,1.094,10.131.129,1.5,14.489-1.438"/><path class="b" d="M949.428,225.9l.772,6.88.193,1.5,2.705,23.89,1.545,13.446.387,3.377,9.209-1"/><path class="b" d="M516.046,168.49l-.194-1.5-14.425,1.5-17.9,1.814L496.6,301.2l.322,3.065,32.262-3.065L516.175,170.3Z"/><path class="b" d="M360.531,139.721l3.735-.375v.375h.064l.129,1.626,16.872-1.626-.064-.375-.129-1.626,4.636-.438,71.221-6.879,33.743-3.252-.064-.563-1.739-17.324-.193-1.564-1.094-10.631-.322-3.252-33.679,3.252m.115.008-1.21-10.89-.064-.25-.064-.438v-.254l-.064-.625-6.826.625-2.511.25-.064-.25-.071-1.122-.064-.438-4.637.438.129,1.126v.25l.064.438-2.511.25,1.288,12.446L343.268,107.7l-2.125.188.129,1.376,1.8,17.324.064.563.129,1.876,1.095,10.694.193,1.564,15.97-1.564"/><path class="b" d="M151.18,352.671l-.064-.813-.129-1-10.561,1-8.242.813,2.833,28.205.193,2,19-2Z"/><path class="b" d="M402.968,710.4l-.516-5.567-.258-2.314,16.035-1.563-1.868-17.449-.258-2.126v-.062l-.643-6.067v-2.372l-24.212,2.376-61.3,6.067-2.511.062-9.146.923-2.066-20.44-.129-1.188L303.6,661.869l2.64,20.451.129,1.188,1.868,17.449.128,1.563.258,2.314.708,6.442v.062l.58-.062,73.024-6.442.644,5.567.065.875.129,1.126.129,1,9.144-1,10.046-1.121Z"/><path class="b" d="M503.166,772.878l2.19-10.194.065-.249.451-1.876,1.094-5.191.773-3.252.128-.688-6.44.688L469.1,755.367l-52.741,5.191-18.677,1.877-2.383.249,1.1,10.194.193,2.126.837,7.5.515,4.878v.063l.065.875.064.313.129,1.563.129,1.251.065.5,13.394-.5-.064-1.251,15.712-1.563.193,1.563.065.75,7.148-.75,15.262-1.563,3.22-.312,8.822-.875.837-.063L510.7,782.51l-5.731-7.505Z"/><path class="b" d="M222.466,602.081l-.064-.313-.772-6.692-64.46,6.692-3.22.313.837,8.38.064.625.129,1.188,2.383,24.767.644,6.254,60.6-6.254-2.64-24.767-.129-1.188,7.663-.625Z"/><path class="b" d="M312.749,627.285l5.86-.626L315,593.075l-.06-.563-5.86.563,3.606,33.584Z"/><path class="b" d="M339.859,192.944l12.815,115.825.709,6.692.129,1.564.129,1.5,14.811-1.5,15-1.564-.707-6.692L369.931,192.944l1.288-.125-.709-7.129-.128-1.189-.065-.937h-.064v-.125l-1.481.125v-.125l-.129-1-8.951,1-1.1.125h-.255l-1.8-3.377-.258-.5-4.894.5-1.03,3.377-.257.937-11.076,1.189.837,7.129Z"/><path class="b" d="M242.365,397.325l-.515-4.816-.065-.813-8.049.813.516,4.816.064.812-8.757.939.064,6.755v2.877l-2.447.25.129,1.063v.25l2.318-.25v.25l.193,19.137v1.064l.065,2.94.193,1.689.322,2.877,1.481,13.071.065.875.129,1.063.064.188v.125l.516,4.44,3.671,17.761.193,1,.065.25.386,1.876-2.125.25.129,1v.313l2.253-.312.064.313,1.353,6.316.193,1,.193,1,.258,1.126,10.046-1.126.129,1.126.451,3.815.128.939,8.5-.939-.516-3.815-.129-1.126-.129-1,8.565-1-.065-6.316v-1.313l-.064-.25v-1.872l2-.25-.129-1v-.25l-1.868.25-.258-17.761-.064-4.44v-.125l2.253-.188-.064-1.063-.065-.25-2.19.25-.064-.875-1.675-13.071-.386-2.877-.194-1.689-.386-2.94,2.318-.187-.065-.876-.064-.249-2.383.249-3.992-19.137v-.25l-.258-1.063-.064-.25-.322-1.689,2-.187-.128-1v-.25l-2.125.25-1.417-6.755-.193-.939-.129-.812-.193-1Z"/><path class="b" d="M159.553,154.856l-25.308,2.627,1.42,13.446,1.159,10.32,1.288,11.757,114.045-11.757L251,170.929l-.386-3.752-1.8-16.136-.515-5-.064-.25-2.447.25-50.228,5v-.187l-.387-3.753-36.062,3.753v.187l.451,3.815"/><path class="b" d="M322.215,660.12,319.7,637.043l-.516-5.317-.515-4.44-.065-.626-5.86.626-1.739-16.2-.064-.625-.9-8.694-.709-6.692-.258-2-.965-6.942-67.165,6.942-19.319,2,.772,6.692,1.094,8.694-7.663.625,1.739,16.2.451,4.44.58,5.317,51.13-5.317.58,5.317,2.512,23.077.064.563.129,1.188.258,2.314.064.751,5.989-.751.064.751.323,3.252.322,2.626,24.341-2.626-.387-3.252-.128-.751-.258-2.314,12.492-1.188Z"/><path class="c" d="M662.611,304.015,683.99,301.7l-.129-1.564-.258-2.126-21.443,2.126.193,1.564Z"/><path class="c" d="M730,407l46-4,37-19-4.535-8.535L805.954,352.2l-.966-8.693-4.957-45.217,3.349-14.2.708-2.94,2.061-8.818-13.33-3L796,256l-14-29-27,2-2.048,12.936L682,249l4,37,54.982-6.035.451,1.188,1.03,2.94,5.086,14.2,16.357,45.216,3.156,8.693-52.289,24.64Z"/><path class="c" d="M630.748,179.686l-.644,2.94-.451,2.252L633,187.129l-1.03,4.628-.643,3.065-.451,1.938,3.349,2.439-.966,4.879-.643,2.939-.387,2.064,3.285,2.5-.9,4.253-.643,3.065-.451,2.252,3.284,2.439-.9,4.378-.643,3.127-.451,2.376,3.284,2.315-1.03,4.627-.644,3.065-.387,1.751,3.285,2.627-.194,1-.451,2.376-.644,3.315-.645,3.127,3.285,2.751-.708,3.19-.644,3.064-.644,3.252,3.22,2.439-.708,3.5-.58,2.939v.063l-.643,3.189,3.22,2.439-.193.688L642.41,288l-.58,3-.58,3,3.155,2.315.129,1.313.516,4.691,47.717-4.691-.129-1.313L692.38,294l-.322-3,2.769-3-1.224-2.815-.322-.688-1.03-2.439-1.416-3.189v-.063l2.7-2.939-1.481-3.5-1.1-2.439-1.416-3.252,2.7-3.064-1.416-3.19-1.159-2.751-1.353-3.127,2.64-3.315-1.158-2.376-.516-1-1.288-2.627-.837-1.751,2.641-3.065-1.933-4.627-1.03-2.315-.965-2.376,2.575-3.127-1.867-4.378-1.031-2.439-.965-2.252,2.575-3.065-1.8-4.253-1.094-2.5-.9-2.064,2.575-2.939-2-4.879-1.03-2.439-.836-1.938,2.575-3.065-1.932-4.628-.965-2.251-.9-2.252,2.512-2.94L681.427,175l-.965-2.439-.9-2.19,2.511-2.813-1.932-4.691-1.8-4.565-.193-1.939-.065-.25-.064-.625-.387-3.815v-.193l-2.124.187-37.092,3.815-6.567.625-2.062.25.194,1.939.451,4.565-1.03,4.691-.58,2.813-.516,2.19,3.414,2.439Z"/><ellipse class="b" cx="7.513" cy="7.296" rx="7.513" ry="7.296" transform="translate(618.663 297.184)"/><ellipse class="b" cx="7.513" cy="7.296" rx="7.513" ry="7.296" transform="translate(328.526 305.87)"/><ellipse class="b" cx="7.513" cy="7.296" rx="7.513" ry="7.296" transform="translate(635.477 617.529)"/><ellipse class="b" cx="7.513" cy="7.296" rx="7.513" ry="7.296" transform="translate(340.469 622.726)"/><ellipse class="b" cx="7.513" cy="7.296" rx="7.513" ry="7.296" transform="translate(431.068 683.619)"/><path class="c" d="M690,291"/><path class="b" d="M636.5,910.5"/><path class="b" d="M846.357,910.68"/><path class="b" d="M846.5,910.5"/><path class="b" d="M964.5,692.5"/><path class="b" d="M964.5,692.5"/><rect class="c" width="114" height="18" transform="translate(796 478)"/><text class="d" transform="translate(800.085 492.276)"><tspan x="0" y="0">Straße des 17. Juni</tspan></text><rect class="c" width="108" height="18" transform="translate(442 513)"/><text class="d" transform="translate(446.085 527.276)"><tspan x="0" y="0">Ernst-Reuter-Platz</tspan></text><rect class="c" width="54" height="18" transform="translate(615 328)"/><text class="d" transform="translate(619.085 342.276)"><tspan x="0" y="0">Bus 245</tspan></text><rect class="c" width="57" height="18" transform="translate(330 324)"/><text class="d" transform="translate(334.085 338.276)"><tspan x="0" y="0">Bus M45</tspan></text><rect class="c" width="65" height="18" transform="translate(636 636)"/><text class="d" transform="translate(640.085 650.276)"><tspan x="0" y="0">U-Bahn U2</tspan></text><rect class="c" width="65" height="18" transform="translate(431 704)"/><text class="d" transform="translate(435.085 718.276)"><tspan x="0" y="0">U-Bahn U2</tspan></text><rect class="c" width="65" height="18" transform="translate(341 641)"/><text class="d" transform="translate(345.085 655.276)"><tspan x="0" y="0">U-Bahn U2</tspan></text><rect class="c" width="103" height="18" transform="translate(664 796)"/><text class="d" transform="translate(668.085 810.276)"><tspan x="0" y="0">Bus 245, X9, M45</tspan></text><rect class="c" width="78" height="18" transform="translate(550 100)"/><text class="d" transform="translate(554.085 114.276)"><tspan x="0" y="0">Marchstraße</tspan></text></g></g></svg>