<svg xmlns="http://www.w3.org/2000/svg" width="27" height="27" viewBox="0 0 27 27"><defs><style>.a{fill:#1717e2;}.b{fill:#f5f2f2;}</style></defs><circle class="a" cx="13.5" cy="13.5" r="13.5"/><path class="b" d="M306.229,61.057H305.5l-.274-.274a13.038,13.038,0,0,0,.868-1.278,9.311,9.311,0,0,0,.6-2.562,5.943,5.943,0,1,0-5.943,5.943,5.722,5.722,0,0,0,3.84-1.463l.274.274v.731L309.429,67l1.371-1.371Zm-5.486,0a4.114,4.114,0,1,1,4.114-4.114A4.1,4.1,0,0,1,300.743,61.057Z" transform="translate(-288.83 -45.03)"/></svg>